# xmcd
#
# Track frame offsets:
#	150
#	22008
#	24138
#	44470
#	63903
#	84169
#	102913
#	122788
#	141693
#	160158
#	182992
#
# Disc length: 2733 seconds
#
# Revision: 0
# Processed by: cddbd v1.5.1PL0 Copyright (c) Steve Scherf et al.
# Submitted via: dBpowerAMP V4.0
#
DISCID=900aab0b
DTITLE=Various Artist - Projecto Bali Pena Vol. 2
DYEAR=2005
DGENRE=Kizomba
TTITLE0=Grace Évora - Diliriu
TTITLE1=Grace Évora - Interlude
TTITLE2=Philippe Monteiro - Nos Ku Mundo
TTITLE3=G.G. - Fazem Dor
TTITLE4=Bino Branco - Mudansa
TTITLE5=Calú Tavares - Ela Não Está Aqui
TTITLE6=Gaby Fernandes - És Maneira
TTITLE7=Calú Di Brava - Spiritual
TTITLE8=Jorge Pimpa - Binde Fradu
TTITLE9=Djipson - Conqjuistam
TTITLE10=Jorge Neto - Paixon
EXTD=Tiago Jesus: www.kizomba.biz
EXTT0=
EXTT1=
EXTT2=
EXTT3=
EXTT4=
EXTT5=
EXTT6=
EXTT7=
EXTT8=
EXTT9=
EXTT10=
PLAYORDER=
